<mxfile host="app.diagrams.net" agent="Mozilla/5.0 (Windows NT 10.0; Win64; x64) AppleWebKit/537.36 (KHTML, like Gecko) Chrome/135.0.0.0 Safari/537.36" version="26.2.14">
  <diagram name="Page-1" id="Na5NftWUbNmSfB00oeHB">
    <mxGraphModel>
      <root>
        <mxCell id="0" />
        <mxCell id="1" parent="0" />
        <mxCell id="2" value="Start" style="whiteSpace=wrap;strokeWidth=2;" vertex="1" parent="1">
          <mxGeometry x="46" y="49" width="95" height="54" as="geometry" />
        </mxCell>
        <mxCell id="3" value="Cek Kondisi" style="rhombus;strokeWidth=2;whiteSpace=wrap;" vertex="1" parent="1">
          <mxGeometry x="26" y="249" width="136" height="136" as="geometry" />
        </mxCell>
        <mxCell id="4" value="Jalankan Blok A" style="whiteSpace=wrap;strokeWidth=2;" vertex="1" parent="1">
          <mxGeometry x="8" y="531" width="172" height="54" as="geometry" />
        </mxCell>
        <mxCell id="5" value="End" style="whiteSpace=wrap;strokeWidth=2;" vertex="1" parent="1">
          <mxGeometry x="51" y="699" width="86" height="54" as="geometry" />
        </mxCell>
        <mxCell id="6" value="Start" style="whiteSpace=wrap;strokeWidth=2;" vertex="1" parent="1">
          <mxGeometry x="333" y="49" width="95" height="54" as="geometry" />
        </mxCell>
        <mxCell id="7" value="Cek Kondisi" style="rhombus;strokeWidth=2;whiteSpace=wrap;" vertex="1" parent="1">
          <mxGeometry x="312" y="249" width="136" height="136" as="geometry" />
        </mxCell>
        <mxCell id="8" value="Jalankan Blok A" style="whiteSpace=wrap;strokeWidth=2;" vertex="1" parent="1">
          <mxGeometry x="294" y="531" width="172" height="54" as="geometry" />
        </mxCell>
        <mxCell id="9" value="Jalankan Blok B" style="whiteSpace=wrap;strokeWidth=2;" vertex="1" parent="1">
          <mxGeometry x="516" y="531" width="172" height="54" as="geometry" />
        </mxCell>
        <mxCell id="10" value="End" style="whiteSpace=wrap;strokeWidth=2;" vertex="1" parent="1">
          <mxGeometry x="337" y="699" width="86" height="54" as="geometry" />
        </mxCell>
        <mxCell id="11" value="Start" style="whiteSpace=wrap;strokeWidth=2;" vertex="1" parent="1">
          <mxGeometry x="790" y="49" width="95" height="54" as="geometry" />
        </mxCell>
        <mxCell id="12" value="Cek Kondisi" style="rhombus;strokeWidth=2;whiteSpace=wrap;" vertex="1" parent="1">
          <mxGeometry x="770" y="249" width="136" height="136" as="geometry" />
        </mxCell>
        <mxCell id="13" value="Jalankan Blok Eksekusi" style="whiteSpace=wrap;strokeWidth=2;" vertex="1" parent="1">
          <mxGeometry x="738" y="531" width="223" height="54" as="geometry" />
        </mxCell>
        <mxCell id="14" value="End" style="whiteSpace=wrap;strokeWidth=2;" vertex="1" parent="1">
          <mxGeometry x="1030" y="531" width="86" height="54" as="geometry" />
        </mxCell>
        <mxCell id="15" value="Start" style="whiteSpace=wrap;strokeWidth=2;" vertex="1" parent="1">
          <mxGeometry x="1657" y="49" width="95" height="54" as="geometry" />
        </mxCell>
        <mxCell id="16" value="Jalankan Blok Eksekusi" style="whiteSpace=wrap;strokeWidth=2;" vertex="1" parent="1">
          <mxGeometry x="1593" y="290" width="223" height="54" as="geometry" />
        </mxCell>
        <mxCell id="17" value="Cek Kondisi" style="rhombus;strokeWidth=2;whiteSpace=wrap;" vertex="1" parent="1">
          <mxGeometry x="1637" y="491" width="136" height="136" as="geometry" />
        </mxCell>
        <mxCell id="18" value="End" style="whiteSpace=wrap;strokeWidth=2;" vertex="1" parent="1">
          <mxGeometry x="1662" y="699" width="86" height="54" as="geometry" />
        </mxCell>
        <mxCell id="19" value="Start" style="whiteSpace=wrap;strokeWidth=2;" vertex="1" parent="1">
          <mxGeometry x="975" y="49" width="95" height="54" as="geometry" />
        </mxCell>
        <mxCell id="20" value="Inisialisasi" style="whiteSpace=wrap;strokeWidth=2;" vertex="1" parent="1">
          <mxGeometry x="956" y="290" width="132" height="54" as="geometry" />
        </mxCell>
        <mxCell id="21" value="Cek Kondisi" style="rhombus;strokeWidth=2;whiteSpace=wrap;" vertex="1" parent="1">
          <mxGeometry x="1414" y="8" width="136" height="136" as="geometry" />
        </mxCell>
        <mxCell id="22" value="Jalankan Blok Eksekusi" style="whiteSpace=wrap;strokeWidth=2;" vertex="1" parent="1">
          <mxGeometry x="1138" y="290" width="223" height="54" as="geometry" />
        </mxCell>
        <mxCell id="23" value="Increment" style="whiteSpace=wrap;strokeWidth=2;" vertex="1" parent="1">
          <mxGeometry x="1427" y="531" width="133" height="54" as="geometry" />
        </mxCell>
        <mxCell id="24" value="End" style="whiteSpace=wrap;strokeWidth=2;" vertex="1" parent="1">
          <mxGeometry x="1411" y="290" width="86" height="54" as="geometry" />
        </mxCell>
        <mxCell id="25" value="Loop" style="whiteSpace=wrap;strokeWidth=2;" vertex="1" parent="1">
          <mxGeometry x="2227" y="49" width="94" height="54" as="geometry" />
        </mxCell>
        <mxCell id="26" value="Cek Kondisi Tertentu" style="rhombus;strokeWidth=2;whiteSpace=wrap;" vertex="1" parent="1">
          <mxGeometry x="2100" y="216" width="201" height="201" as="geometry" />
        </mxCell>
        <mxCell id="27" value="Skip Eksekusi Blok Bawahnya" style="whiteSpace=wrap;strokeWidth=2;" vertex="1" parent="1">
          <mxGeometry x="1823" y="519" width="260" height="78" as="geometry" />
        </mxCell>
        <mxCell id="28" value="Jalankan Blok Eksekusi" style="whiteSpace=wrap;strokeWidth=2;" vertex="1" parent="1">
          <mxGeometry x="2133" y="531" width="223" height="54" as="geometry" />
        </mxCell>
        <mxCell id="29" value="Increment" style="whiteSpace=wrap;strokeWidth=2;" vertex="1" parent="1">
          <mxGeometry x="2324" y="699" width="133" height="54" as="geometry" />
        </mxCell>
        <mxCell id="30" value="" style="curved=1;startArrow=none;endArrow=block;exitX=0.5;exitY=1;entryX=0.5;entryY=0;" edge="1" parent="1" source="2" target="3">
          <mxGeometry relative="1" as="geometry">
            <Array as="points" />
          </mxGeometry>
        </mxCell>
        <mxCell id="31" value="TRUE" style="curved=1;startArrow=none;endArrow=block;exitX=0.5;exitY=1;entryX=0.5;entryY=0.01;" edge="1" parent="1" source="3" target="4">
          <mxGeometry relative="1" as="geometry">
            <Array as="points" />
          </mxGeometry>
        </mxCell>
        <mxCell id="32" value="" style="curved=1;startArrow=none;endArrow=block;exitX=0.5;exitY=1.01;entryX=0.5;entryY=0;" edge="1" parent="1" source="4" target="5">
          <mxGeometry relative="1" as="geometry">
            <Array as="points" />
          </mxGeometry>
        </mxCell>
        <mxCell id="33" value="FALSE" style="curved=1;startArrow=none;endArrow=block;exitX=1;exitY=0.98;entryX=1;entryY=0.15;" edge="1" parent="1" source="3" target="5">
          <mxGeometry relative="1" as="geometry">
            <Array as="points">
              <mxPoint x="237" y="454" />
              <mxPoint x="237" y="663" />
            </Array>
          </mxGeometry>
        </mxCell>
        <mxCell id="34" value="" style="curved=1;startArrow=none;endArrow=block;exitX=0.5;exitY=1;entryX=0.5;entryY=0;" edge="1" parent="1" source="6" target="7">
          <mxGeometry relative="1" as="geometry">
            <Array as="points" />
          </mxGeometry>
        </mxCell>
        <mxCell id="35" value="TRUE" style="curved=1;startArrow=none;endArrow=block;exitX=0.5;exitY=1;entryX=0.5;entryY=0.01;" edge="1" parent="1" source="7" target="8">
          <mxGeometry relative="1" as="geometry">
            <Array as="points" />
          </mxGeometry>
        </mxCell>
        <mxCell id="36" value="FALSE" style="curved=1;startArrow=none;endArrow=block;exitX=1;exitY=0.81;entryX=0.5;entryY=0.01;" edge="1" parent="1" source="7" target="9">
          <mxGeometry relative="1" as="geometry">
            <Array as="points">
              <mxPoint x="602" y="454" />
            </Array>
          </mxGeometry>
        </mxCell>
        <mxCell id="37" value="" style="curved=1;startArrow=none;endArrow=block;exitX=0.5;exitY=1.01;entryX=0.5;entryY=0;" edge="1" parent="1" source="8" target="10">
          <mxGeometry relative="1" as="geometry">
            <Array as="points" />
          </mxGeometry>
        </mxCell>
        <mxCell id="38" value="" style="curved=1;startArrow=none;endArrow=block;exitX=0.5;exitY=1.01;entryX=1;entryY=0.27;" edge="1" parent="1" source="9" target="10">
          <mxGeometry relative="1" as="geometry">
            <Array as="points">
              <mxPoint x="602" y="663" />
            </Array>
          </mxGeometry>
        </mxCell>
        <mxCell id="39" value="" style="curved=1;startArrow=none;endArrow=block;exitX=0.5;exitY=1;entryX=0.5;entryY=0;" edge="1" parent="1" source="11" target="12">
          <mxGeometry relative="1" as="geometry">
            <Array as="points" />
          </mxGeometry>
        </mxCell>
        <mxCell id="40" value="TRUE" style="curved=1;startArrow=none;endArrow=block;exitX=0.28;exitY=1;entryX=0.42;entryY=0.01;" edge="1" parent="1" source="12" target="13">
          <mxGeometry relative="1" as="geometry">
            <Array as="points">
              <mxPoint x="777" y="454" />
            </Array>
          </mxGeometry>
        </mxCell>
        <mxCell id="41" value="" style="curved=1;startArrow=none;endArrow=block;exitX=0.75;exitY=0.01;entryX=1;entryY=0.8;" edge="1" parent="1" source="13" target="12">
          <mxGeometry relative="1" as="geometry">
            <Array as="points">
              <mxPoint x="1065" y="454" />
            </Array>
          </mxGeometry>
        </mxCell>
        <mxCell id="42" value="FALSE" style="curved=1;startArrow=none;endArrow=block;exitX=0.87;exitY=1;entryX=0.1;entryY=0.01;" edge="1" parent="1" source="12" target="14">
          <mxGeometry relative="1" as="geometry">
            <Array as="points">
              <mxPoint x="940" y="454" />
            </Array>
          </mxGeometry>
        </mxCell>
        <mxCell id="43" value="" style="curved=1;startArrow=none;endArrow=block;exitX=0.5;exitY=1;entryX=0.5;entryY=0;" edge="1" parent="1" source="15" target="16">
          <mxGeometry relative="1" as="geometry">
            <Array as="points" />
          </mxGeometry>
        </mxCell>
        <mxCell id="44" value="" style="curved=1;startArrow=none;endArrow=block;exitX=0.42;exitY=1;entryX=0.07;entryY=0;" edge="1" parent="1" source="16" target="17">
          <mxGeometry relative="1" as="geometry">
            <Array as="points">
              <mxPoint x="1616" y="454" />
            </Array>
          </mxGeometry>
        </mxCell>
        <mxCell id="45" value="TRUE" style="curved=1;startArrow=none;endArrow=block;exitX=0.94;exitY=0;entryX=0.58;entryY=1;" edge="1" parent="1" source="17" target="16">
          <mxGeometry relative="1" as="geometry">
            <Array as="points">
              <mxPoint x="1798" y="454" />
            </Array>
          </mxGeometry>
        </mxCell>
        <mxCell id="46" value="FALSE" style="curved=1;startArrow=none;endArrow=block;exitX=0.5;exitY=0.99;entryX=0.5;entryY=0;" edge="1" parent="1" source="17" target="18">
          <mxGeometry relative="1" as="geometry">
            <Array as="points" />
          </mxGeometry>
        </mxCell>
        <mxCell id="47" value="" style="curved=1;startArrow=none;endArrow=block;exitX=0.49;exitY=1;entryX=0.5;entryY=0;" edge="1" parent="1" source="19" target="20">
          <mxGeometry relative="1" as="geometry">
            <Array as="points" />
          </mxGeometry>
        </mxCell>
        <mxCell id="48" value="TRUE" style="curved=1;startArrow=none;endArrow=block;exitX=0;exitY=0.72;entryX=0.5;entryY=0;" edge="1" parent="1" source="21" target="22">
          <mxGeometry relative="1" as="geometry">
            <Array as="points">
              <mxPoint x="1250" y="180" />
            </Array>
          </mxGeometry>
        </mxCell>
        <mxCell id="49" value="" style="curved=1;startArrow=none;endArrow=block;exitX=0.5;exitY=1;entryX=0.02;entryY=0.01;" edge="1" parent="1" source="22" target="23">
          <mxGeometry relative="1" as="geometry">
            <Array as="points">
              <mxPoint x="1250" y="454" />
            </Array>
          </mxGeometry>
        </mxCell>
        <mxCell id="50" value="" style="curved=1;startArrow=none;endArrow=block;exitX=0.57;exitY=0.01;entryX=0.74;entryY=1;" edge="1" parent="1" source="23" target="21">
          <mxGeometry relative="1" as="geometry">
            <Array as="points">
              <mxPoint x="1532" y="454" />
              <mxPoint x="1532" y="180" />
            </Array>
          </mxGeometry>
        </mxCell>
        <mxCell id="51" value="FALSE" style="curved=1;startArrow=none;endArrow=block;exitX=0.37;exitY=1;entryX=0.5;entryY=0;" edge="1" parent="1" source="21" target="24">
          <mxGeometry relative="1" as="geometry">
            <Array as="points">
              <mxPoint x="1454" y="180" />
            </Array>
          </mxGeometry>
        </mxCell>
        <mxCell id="52" value="" style="curved=1;startArrow=none;endArrow=block;exitX=0.3;exitY=1;entryX=0.5;entryY=0;" edge="1" parent="1" source="25" target="26">
          <mxGeometry relative="1" as="geometry">
            <Array as="points">
              <mxPoint x="2201" y="180" />
            </Array>
          </mxGeometry>
        </mxCell>
        <mxCell id="53" value="TRUE" style="curved=1;startArrow=none;endArrow=block;exitX=0;exitY=0.78;entryX=0.5;entryY=0;" edge="1" parent="1" source="26" target="27">
          <mxGeometry relative="1" as="geometry">
            <Array as="points">
              <mxPoint x="1953" y="454" />
            </Array>
          </mxGeometry>
        </mxCell>
        <mxCell id="54" value="FALSE" style="curved=1;startArrow=none;endArrow=block;exitX=0.66;exitY=1;entryX=0.5;entryY=0.01;" edge="1" parent="1" source="26" target="28">
          <mxGeometry relative="1" as="geometry">
            <Array as="points">
              <mxPoint x="2244" y="454" />
            </Array>
          </mxGeometry>
        </mxCell>
        <mxCell id="55" value="" style="curved=1;startArrow=none;endArrow=block;exitX=0.5;exitY=1.01;entryX=0.03;entryY=0;" edge="1" parent="1" source="28" target="29">
          <mxGeometry relative="1" as="geometry">
            <Array as="points">
              <mxPoint x="2244" y="663" />
            </Array>
          </mxGeometry>
        </mxCell>
        <mxCell id="56" value="" style="curved=1;startArrow=none;endArrow=block;exitX=0.5;exitY=0;entryX=0.82;entryY=1;" edge="1" parent="1" source="29" target="25">
          <mxGeometry relative="1" as="geometry">
            <Array as="points">
              <mxPoint x="2391" y="180" />
            </Array>
          </mxGeometry>
        </mxCell>
      </root>
    </mxGraphModel>
  </diagram>
</mxfile>
